<svg width="395.081298828125px" height="125.6px" xmlns="http://www.w3.org/2000/svg" viewBox="52.4593505859375 12.200000000000003 395.081298828125 125.6" style="background: rgba(0, 0, 0, 0);" preserveAspectRatio="xMidYMid"><defs><filter id="editing-extrusion" x="-100%" y="-100%" width="300%" height="300%"><feFlood result="color1" flood-color="#444"></feFlood><feConvolveMatrix order="5,5" divisor="1" kernelMatrix="1 0 0 0 0 0 1 0 0 0 0 0 1 0 0 0 0 0 1 0 0 0 0 0 1" in="SourceAlpha" result="extrude"></feConvolveMatrix><feComposite in="color1" in2="extrude" result="comp-extrude" operator="in"></feComposite><feOffset dx="2.5" dy="2.5" in="comp-extrude" result="offset-extrude"></feOffset><feMerge><feMergeNode in="offset-extrude"></feMergeNode><feMergeNode in="SourceGraphic"></feMergeNode></feMerge></filter></defs><g filter="url(#editing-extrusion)"><g transform="translate(109.46371746063232, 98.90500259399414)"><path d="M64.26-44.80L68.80-44.80L53.70 0L48.70 0L35.58-38.21L22.40 0L17.47 0L2.37-44.80L7.23-44.80L20.16-6.27L33.54-44.80L37.95-44.80L51.14-6.08L64.26-44.80ZM106.82-16.83L106.75-15.42L78.59-15.42L78.59-15.42Q78.98-10.18 82.62-6.94L82.62-6.94L82.62-6.94Q86.27-3.71 91.84-3.71L91.84-3.71L91.84-3.71Q94.98-3.71 97.60-4.83L97.60-4.83L97.60-4.83Q100.22-5.95 102.14-8.13L102.14-8.13L104.70-5.18L104.70-5.18Q102.46-2.50 99.10-1.09L99.10-1.09L99.10-1.09Q95.74 0.32 91.71 0.32L91.71 0.32L91.71 0.32Q86.53 0.32 82.53-1.89L82.53-1.89L82.53-1.89Q78.53-4.10 76.29-8L76.29-8L76.29-8Q74.05-11.90 74.05-16.83L74.05-16.83L74.05-16.83Q74.05-21.76 76.19-25.66L76.19-25.66L76.19-25.66Q78.34-29.57 82.08-31.74L82.08-31.74L82.08-31.74Q85.82-33.92 90.50-33.92L90.50-33.92L90.50-33.92Q95.17-33.92 98.88-31.74L98.88-31.74L98.88-31.74Q102.59-29.57 104.70-25.70L104.70-25.70L104.70-25.70Q106.82-21.82 106.82-16.83L106.82-16.83ZM90.50-30.02L90.50-30.02Q85.63-30.02 82.34-26.91L82.34-26.91L82.34-26.91Q79.04-23.81 78.59-18.82L78.59-18.82L102.46-18.82L102.46-18.82Q102.02-23.81 98.72-26.91L98.72-26.91L98.72-26.91Q95.42-30.02 90.50-30.02L90.50-30.02ZM133.44-33.92L133.44-33.92Q138.18-33.92 142.02-31.78L142.02-31.78L142.02-31.78Q145.86-29.63 148.03-25.73L148.03-25.73L148.03-25.73Q150.21-21.82 150.21-16.83L150.21-16.83L150.21-16.83Q150.21-11.84 148.03-7.94L148.03-7.94L148.03-7.94Q145.86-4.03 142.02-1.86L142.02-1.86L142.02-1.86Q138.18 0.32 133.44 0.32L133.44 0.32L133.44 0.32Q129.22 0.32 125.86-1.47L125.86-1.47L125.86-1.47Q122.50-3.26 120.45-6.66L120.45-6.66L120.45 0L116.10 0L116.10-47.49L120.64-47.49L120.64-27.26L120.64-27.26Q122.75-30.53 126.05-32.22L126.05-32.22L126.05-32.22Q129.34-33.92 133.44-33.92L133.44-33.92ZM133.12-3.71L133.12-3.71Q136.64-3.71 139.52-5.34L139.52-5.34L139.52-5.34Q142.40-6.98 144.03-9.98L144.03-9.98L144.03-9.98Q145.66-12.99 145.66-16.83L145.66-16.83L145.66-16.83Q145.66-20.67 144.03-23.68L144.03-23.68L144.03-23.68Q142.40-26.69 139.52-28.32L139.52-28.32L139.52-28.32Q136.64-29.95 133.12-29.95L133.12-29.95L133.12-29.95Q129.54-29.95 126.69-28.32L126.69-28.32L126.69-28.32Q123.84-26.69 122.21-23.68L122.21-23.68L122.21-23.68Q120.58-20.67 120.58-16.83L120.58-16.83L120.58-16.83Q120.58-12.99 122.21-9.98L122.21-9.98L122.21-9.98Q123.84-6.98 126.69-5.34L126.69-5.34L126.69-5.34Q129.54-3.71 133.12-3.71L133.12-3.71ZM160.45 0L160.45-44.80L178.69-44.80L178.69-44.80Q185.79-44.80 191.23-41.95L191.23-41.95L191.23-41.95Q196.67-39.10 199.68-34.02L199.68-34.02L199.68-34.02Q202.69-28.93 202.69-22.40L202.69-22.40L202.69-22.40Q202.69-15.87 199.68-10.78L199.68-10.78L199.68-10.78Q196.67-5.70 191.23-2.85L191.23-2.85L191.23-2.85Q185.79 0 178.69 0L178.69 0L160.45 0ZM165.18-4.10L178.43-4.10L178.43-4.10Q184.32-4.10 188.74-6.43L188.74-6.43L188.74-6.43Q193.15-8.77 195.58-12.90L195.58-12.90L195.58-12.90Q198.02-17.02 198.02-22.40L198.02-22.40L198.02-22.40Q198.02-27.78 195.58-31.90L195.58-31.90L195.58-31.90Q193.15-36.03 188.74-38.37L188.74-38.37L188.74-38.37Q184.32-40.70 178.43-40.70L178.43-40.70L165.18-40.70L165.18-4.10ZM241.73-16.83L241.66-15.42L213.50-15.42L213.50-15.42Q213.89-10.18 217.54-6.94L217.54-6.94L217.54-6.94Q221.18-3.71 226.75-3.71L226.75-3.71L226.75-3.71Q229.89-3.71 232.51-4.83L232.51-4.83L232.51-4.83Q235.14-5.95 237.06-8.13L237.06-8.13L239.62-5.18L239.62-5.18Q237.38-2.50 234.02-1.09L234.02-1.09L234.02-1.09Q230.66 0.32 226.62 0.32L226.62 0.32L226.62 0.32Q221.44 0.32 217.44-1.89L217.44-1.89L217.44-1.89Q213.44-4.10 211.20-8L211.20-8L211.20-8Q208.96-11.90 208.96-16.83L208.96-16.83L208.96-16.83Q208.96-21.76 211.10-25.66L211.10-25.66L211.10-25.66Q213.25-29.57 216.99-31.74L216.99-31.74L216.99-31.74Q220.74-33.92 225.41-33.92L225.41-33.92L225.41-33.92Q230.08-33.92 233.79-31.74L233.79-31.74L233.79-31.74Q237.50-29.57 239.62-25.70L239.62-25.70L239.62-25.70Q241.73-21.82 241.73-16.83L241.73-16.83ZM225.41-30.02L225.41-30.02Q220.54-30.02 217.25-26.91L217.25-26.91L217.25-26.91Q213.95-23.81 213.50-18.82L213.50-18.82L237.38-18.82L237.38-18.82Q236.93-23.81 233.63-26.91L233.63-26.91L233.63-26.91Q230.34-30.02 225.41-30.02L225.41-30.02ZM274.82-33.66L279.30-33.66L264.32 0L259.65 0L244.74-33.66L249.47-33.66L262.08-4.99L274.82-33.66Z" fill="#ccc"></path></g></g><style>text {
  font-size: 64px;
  font-family: Arial Black;
  dominant-baseline: central;
  text-anchor: middle;
}</style></svg>