<svg width="200" height="200" viewBox="0 0 200 200" fill="none" xmlns="http://www.w3.org/2000/svg">
<path fill-rule="evenodd" clip-rule="evenodd" d="M47.2417 39.6667C47.4667 37.7745 48.1301 35.9609 49.179 34.3701C50.2279 32.7793 51.6335 31.4551 53.284 30.5029C54.9345 29.5506 56.7844 28.9965 58.6866 28.8846C60.5888 28.7727 62.4909 29.1061 64.2417 29.8583C73.0917 33.6417 92.925 42.6333 118.092 57.1583C143.267 71.6917 160.975 84.3833 168.667 90.1417C175.233 95.0667 175.25 104.833 168.675 109.775C161.058 115.5 143.567 128.025 118.092 142.742C92.5916 157.458 72.9916 166.342 64.225 170.075C56.675 173.3 48.225 168.408 47.2417 160.267C46.0917 150.75 43.9417 129.142 43.9417 99.9583C43.9417 70.7917 46.0833 49.1917 47.2417 39.6667Z" fill="white"/>
</svg>
